<svg width="17" height="27" viewBox="0 0 17 27" fill="none" xmlns="http://www.w3.org/2000/svg">
<path d="M16.065 14.7372L3.7305 25.5282C2.277 26.8017 8.27338e-07 25.7667 8.27338e-07 23.8339V2.25193C-0.000370034 1.81938 0.123948 1.39589 0.358067 1.03218C0.592187 0.668465 0.926183 0.379945 1.32006 0.20117C1.71394 0.0223938 2.151 -0.0390591 2.5789 0.02417C3.0068 0.0873991 3.40741 0.27263 3.73275 0.55768L16.0628 11.3487C16.3044 11.5599 16.4981 11.8203 16.6308 12.1125C16.7635 12.4048 16.8322 12.722 16.8322 13.0429C16.8322 13.3639 16.7635 13.6811 16.6308 13.9733C16.4981 14.2655 16.3044 14.526 16.0628 14.7372H16.065Z" fill="black"/>
</svg>
