<svg width="18" height="28" viewBox="0 0 18 28" fill="none" xmlns="http://www.w3.org/2000/svg">
<path d="M1.68499 15.6942L14.0195 26.4852C15.473 27.7587 17.75 26.7237 17.75 24.791V3.20899C17.7504 2.77644 17.626 2.35295 17.3919 1.98924C17.1578 1.62553 16.8238 1.33701 16.4299 1.15823C16.0361 0.979456 15.599 0.918003 15.1711 0.981232C14.7432 1.04446 14.3426 1.22969 14.0172 1.51474L1.68724 12.3057C1.44557 12.5169 1.25187 12.7774 1.11916 13.0696C0.986447 13.3618 0.917786 13.679 0.917786 14C0.917786 14.3209 0.986447 14.6382 1.11916 14.9304C1.25187 15.2226 1.44557 15.4831 1.68724 15.6942H1.68499Z" fill="black"/>
</svg>
